<svg id="Layer_1" data-name="Layer 1" xmlns="http://www.w3.org/2000/svg" xmlns:xlink="http://www.w3.org/1999/xlink" viewBox="0 0 170 170.5"><defs><style>.cls-1{fill:none;}.cls-2{fill:#606161;}.cls-3{clip-path:url(#clip-path);}.cls-4{fill:#fff;}</style><clipPath id="clip-path" transform="translate(-0.12)"><circle class="cls-1" cx="85.12" cy="85" r="85"/></clipPath></defs><title>user</title><circle class="cls-2" cx="85" cy="85" r="85"/><g class="cls-3"><path class="cls-4" d="M133.36,133.4l-23.86-6-1.38-5.51c16.46-2.77,24.94-7.71,25.31-7.92a3.12,3.12,0,0,0,1.51-2.48,3.17,3.17,0,0,0-1.19-2.67c-.11-.09-11.24-9.28-11.24-41.14,0-26.87-6.29-40.49-18.69-40.49H102C97.5,22.9,94.15,21,85.13,21c-11.7,0-37.38,11.77-37.38,46.72,0,31.86-11.13,41.05-11.21,41.11A3.11,3.11,0,0,0,36.8,114c.37.22,8.76,5.18,25.33,7.95l-1.38,5.5-23.86,6a35,35,0,0,0-26.51,34,3.12,3.12,0,0,0,3.11,3.11H156.76a3.13,3.13,0,0,0,3.11-3.13A35,35,0,0,0,133.36,133.4Z" transform="translate(-0.12)"/></g></svg>